<?xml version="1.0" encoding="UTF-8" standalone="no"?>
<!-- Created with Inkscape (http://www.inkscape.org/) -->

<svg
   version="1.1"
   id="svg1"
   width="450"
   height="450"
   viewBox="0 0 450 450"
   xml:space="preserve"
   xmlns:xlink="http://www.w3.org/1999/xlink"
   xmlns="http://www.w3.org/2000/svg"
   xmlns:svg="http://www.w3.org/2000/svg"><defs
     id="defs1"><linearGradient
       id="linearGradient2"><stop
         style="stop-color:#3fb0f4;stop-opacity:1;"
         offset="0"
         id="stop2" /><stop
         style="stop-color:#3d8bde;stop-opacity:1;"
         offset="1"
         id="stop3" /></linearGradient><linearGradient
       xlink:href="#linearGradient2"
       id="linearGradient3"
       x1="238.46217"
       y1="74.10788"
       x2="238.46217"
       y2="275.31897"
       gradientUnits="userSpaceOnUse"
       gradientTransform="matrix(2.1879863,0,0,2.20199,-325.48736,-209.88909)" /></defs><g
     id="g1"><g
       id="g3"
       transform="translate(32.510091,49.204462)"><rect
         style="fill:#f9f9f9;stroke:#000000;stroke-width:0.1"
         id="rect3"
         width="359.36832"
         height="366.39752"
         x="23.723577"
         y="-7.0292072" /><path
         style="fill:url(#linearGradient3);stroke:none;stroke-width:2.19497"
         d="m 63.320101,-48.437347 c -8.503433,1.663999 -17.265662,1.472669 -25.858518,3.394447 -22.834934,5.106949 -43.8005468,19.844296 -56.026795,39.978941 -17.023015,28.034156 -13.678787,61.138696 -13.678787,92.781306 V 264.7939 c 0,36.06646 -2.516797,71.38882 20.986639,101.26741 22.682,28.83435 59.581288,33.94438 93.69029,33.94438 h 165.83183 c 31.50969,0 65.36022,3.29761 96.12627,-3.58302 29.34107,-6.56197 54.02256,-26.22543 65.02106,-54.68818 11.18346,-28.94133 7.49523,-62.77673 7.49523,-93.34705 V 84.322917 c 0,-32.99444 1.95517,-66.99213 -18.17591,-95.044273 -25.60134,-35.674786 -66.29703,-37.904561 -106.05744,-37.904561 H 144.83069 89.74078 c -8.38325,0 -18.202777,-1.419563 -26.420679,0.188578 M 189.80203,39.629497 h -0.56216 c -3.22104,-6.48329 -2.79029,-20.86042 -10.11854,-24.13823 -6.50099,-2.90782 -17.7196,3.47643 -24.1721,5.28026 -18.38775,5.14037 -36.5736,11.46488 -55.08991,16.12357 -6.75631,1.69989 -18.0294,2.80839 -21.73613,9.52327 -1.79457,3.25087 -0.14901,6.92801 0.74951,10.18333 1.93563,7.0128 4.24629,13.91362 6.18356,20.93235 6.78982,24.599773 14.56921,48.937933 21.36139,73.546183 2.1502,7.79033 3.79988,23.35613 10.86808,28.09838 4.03264,2.70565 8.84065,0.31445 12.92925,-0.94287 8.2526,-2.53777 17.83404,-6.67236 26.42068,-7.35462 l 5.62142,9.05185 c -10.86769,2.01475 -21.33263,5.98019 -32.0421,8.67469 -6.36901,1.60244 -13.04891,3.26747 -19.11282,-0.3772 -9.10026,-5.46963 -9.96392,-20.45338 -12.92925,-29.79561 -8.95,-28.19666 -17.7004,-56.81491 -25.202695,-85.426703 -2.769663,-10.56273 -11.029442,-25.2402 -2.342261,-35.07587 6.297396,-7.12989 18.748106,-8.47844 27.544956,-10.93762 20.33488,-5.6847 40.37808,-12.41944 60.71132,-18.10368 8.83192,-2.469004 19.68886,-7.791831 28.10709,-1.320072 12.7099,9.771132 3.74356,20.166772 2.81071,32.058592 m 20.79924,-15.7464 c 8.6064,-1.32327 18.81318,3.6564 26.98281,5.94026 18.91628,5.28812 38.00338,10.25645 56.77632,16.02928 8.61736,2.64989 19.90656,3.47941 23.98473,13.01202 3.26449,7.63064 -0.39719,15.24297 -2.43598,22.62958 -4.12446,14.94312 -8.80281,29.743113 -12.92927,44.693463 -5.51654,19.98687 -10.77736,40.20149 -17.05161,59.9684 -2.71192,8.5439 -5.84824,17.64655 -16.30211,18.66942 -9.39743,0.91946 -19.21984,-4.11581 -28.10709,-6.60029 -18.31452,-5.11996 -37.05134,-9.60079 -55.08991,-15.65216 -8.92081,-2.99266 -20.08254,-3.99807 -23.42257,-14.52065 -2.66437,-8.39403 1.91749,-17.46993 4.12237,-25.45829 3.69905,-13.40177 7.54376,-26.76567 11.24283,-40.16753 5.31733,-19.264843 10.98273,-38.432933 16.30214,-57.705433 2.52603,-9.15198 5.05954,-19.16709 15.92734,-20.83807 m 1.12427,10.27756 c -5.99186,1.84256 -6.9767,10.45895 -8.33841,15.65217 -4.07648,15.54653 -8.93532,30.9021 -13.21036,46.39064 -4.2671,15.459843 -8.4627,31.062083 -13.11663,46.390663 -1.88506,6.20884 -6.75766,16.07763 -4.49712,22.62959 2.25778,6.54407 15.95048,7.98673 21.73613,9.52328 18.25877,4.84915 36.33731,10.47257 54.52777,15.55787 5.99379,1.67561 14.47873,6.09236 20.79924,4.14873 5.97399,-1.83708 6.96622,-10.41896 8.33843,-15.65212 3.87992,-14.79687 8.57884,-29.38417 12.64818,-44.12769 4.3818,-15.87548 9.11089,-31.65133 13.49141,-47.522153 1.76689,-6.4015 6.81367,-15.95035 5.24668,-22.62959 -1.82854,-7.79405 -15.22937,-9.01765 -21.73617,-10.65476 -17.90333,-4.50446 -35.62278,-10.02144 -53.40348,-14.9921 -6.27855,-1.75518 -15.90976,-6.73666 -22.48567,-4.71453 M 194.29915,203.78829 c 19.74533,-3.3119 34.6656,19.89778 53.96561,18.00942 9.08482,-0.88888 20.39498,-7.02673 28.66925,-10.84333 3.20078,-1.47643 8.34476,-4.28531 11.80497,-1.98009 3.69982,2.46482 4.76614,8.30729 6.18356,12.25766 3.23756,9.02299 6.53914,18.04582 9.55642,27.15552 1.20646,3.64251 4.60788,9.24935 2.06119,13.01202 -2.45835,3.63214 -9.37296,5.2266 -13.30402,6.60026 -7.65715,2.67577 -15.68275,5.37174 -23.04784,8.76897 -3.4031,1.56973 -7.61964,4.66555 -11.24283,5.37453 -2.13694,0.41818 -4.12729,-1.82684 -5.62142,-3.01724 -4.08554,-3.25511 -7.9362,-6.85691 -11.80497,-10.37192 -9.56124,-8.68692 -19.67057,-16.77177 -29.23137,-25.45829 -4.51441,-4.10158 -9.25954,-9.26302 -14.6157,-12.25766 -5.05036,-2.82372 -9.75052,-0.24695 -14.05355,2.6401 -7.46845,5.01085 -17.17678,15.68436 -26.98279,12.25766 -7.53438,-2.63285 -6.6734,-11.12115 -1.68643,-15.65209 6.70033,-6.08765 14.71252,-10.86929 21.92353,-16.31219 5.11816,-3.8632 10.90403,-9.08927 17.42639,-10.18333 m -19.11282,2.73444 c -1.66272,2.81429 -5.23246,4.49463 -7.86997,6.41173 -7.54593,5.48469 -19.853,11.83468 -22.86043,21.30951 -3.11272,9.8065 6.84052,20.19758 16.67685,19.23516 7.87916,-0.77092 14.59118,-6.42534 20.79926,-10.93766 2.7713,-2.01427 6.03703,-5.07524 9.5564,-5.4688 5.97327,-0.66795 11.56482,6.71768 15.73998,10.27759 11.57917,9.87296 22.47648,20.6892 34.29065,30.26706 4.68272,3.79636 12.9357,8.83077 13.21033,15.46359 0.29182,7.04868 -8.00969,9.7261 -13.21033,6.60026 -10.30627,-6.1945 -20.51323,-16.41742 -29.23137,-24.70395 -2.37353,-2.256 -7.5612,-8.66736 -10.58701,-4.5259 -2.91617,3.99139 5.40212,8.62517 7.7763,10.74906 6.99622,6.25869 14.06812,12.56807 21.36138,18.48079 3.13707,2.54328 7.40423,5.73429 5.9962,10.37193 -1.48571,4.89352 -6.92255,5.88785 -11.05548,3.8659 -8.75145,-4.28144 -17.67405,-14.12746 -24.73422,-20.83809 -1.84529,-1.75393 -6.77416,-7.64047 -9.55643,-6.03454 -5.15715,2.9767 2.27936,8.19797 4.49715,10.08897 6.43278,5.48489 15.84268,11.66603 20.70554,18.57515 1.84095,2.61564 1.14727,6.2943 -1.03058,8.4861 -4.81235,4.8431 -10.71308,0.98977 -14.61568,-2.8287 -2.96508,-2.90114 -6.55477,-5.07464 -9.55643,-7.92036 -5.22557,-4.95415 -7.96245,-9.61757 -15.73995,-9.61757 0,-5.85982 -3.43276,-11.70049 -8.99429,-13.95489 -1.62126,-0.6572 -4.74728,-0.0744 -5.99618,-1.03722 -2.29279,-1.76741 -2.65689,-7.4452 -5.24666,-9.90044 -3.36409,-3.18936 -8.17342,-1.50195 -11.05543,-3.67732 -1.18677,-0.89577 -1.31301,-3.52702 -1.96751,-4.80877 -1.97492,-3.86771 -6.1473,-7.48598 -10.587,-7.92036 -9.76402,-0.95534 -11.43897,9.33214 -19.11283,11.69193 -2.30706,0.70946 -6.30326,-1.68285 -8.43213,-2.54583 -6.08595,-2.46696 -12.4359,-4.30137 -18.55069,-6.69454 -2.64777,-1.03632 -6.37321,-1.36235 -8.33843,-3.58303 -3.234285,-3.65473 -0.0464,-9.76032 1.21798,-13.57776 3.28892,-9.92987 6.95944,-19.89648 9.74378,-29.98421 1.00672,-3.6474 1.91246,-9.40629 5.24666,-11.69193 2.78634,-1.91009 6.33468,0.33624 8.99427,1.41436 6.91294,2.80217 14.02902,6.8544 21.3614,8.39174 12.48475,2.61766 22.52941,-7.18069 33.7285,-10.93757 6.21084,-2.08354 11.43731,0.3983 17.4264,1.50861 m -46.65776,62.89136 c 4.8784,-1.02284 10.38506,3.75964 8.80688,8.95759 -1.3364,4.4016 -10.89921,14.43596 -15.5526,15.08636 -5.69206,0.79565 -9.24605,-4.84521 -7.68258,-9.99472 1.23835,-4.07875 10.29114,-13.18175 14.4283,-14.04923 m 16.86425,13.01202 c 5.44586,-1.14184 10.03002,4.30606 7.86999,9.5233 -2.05692,4.9682 -11.53994,14.95268 -16.86425,16.21786 -4.65359,1.10579 -9.78619,-4.20941 -8.24475,-8.86323 1.67886,-5.06881 8.53035,-9.33926 12.17973,-13.01202 1.47748,-1.48692 2.9263,-3.41868 5.05928,-3.86591 m 16.30212,13.01203 c 4.30443,-0.42118 8.92985,5.41526 7.68259,9.52329 -1.60596,5.28951 -12.85849,16.51053 -18.36329,16.97219 -4.08401,0.3425 -8.81257,-4.17669 -7.68261,-8.48609 1.36417,-5.20249 9.05807,-10.43607 12.74189,-14.14349 1.51096,-1.52063 3.34134,-3.64278 5.62142,-3.8659 m 14.05355,15.27496 c 5.16364,-1.08265 9.9133,4.48552 8.24472,9.5233 -1.63539,4.93752 -9.96334,12.90091 -14.99044,13.95493 -4.66807,0.97872 -10.4128,-3.00816 -8.80689,-8.29754 1.27794,-4.20899 11.30159,-14.28937 15.55261,-15.18069 m 15.17782,10.65479 c 2.21826,1.82122 5.70432,3.56128 7.02676,6.22313 2.57285,5.17858 -4.66424,8.88226 -8.7132,8.4861 -2.70067,-0.26426 -4.52443,-2.15903 -6.74569,-3.39444 z"
         id="path2" /></g></g></svg>
